<?xml version="1.0" encoding="utf-8"?>
<!-- Generator: Adobe Illustrator 19.0.0, SVG Export Plug-In . SVG Version: 6.00 Build 0)  -->
<svg version="1.1" id="レイヤー_1" xmlns="http://www.w3.org/2000/svg" xmlns:xlink="http://www.w3.org/1999/xlink" x="0px"
	 y="0px" viewBox="0 0 349.678 30.501" enable-background="new 0 0 349.678 30.501" xml:space="preserve">
<g id="XMLID_1_">
	<path id="XMLID_2_" fill="#00847C" d="M11.332,22.511C8.233,22.42,6.319,22.39,5.529,22.39c-2.066,0-4.041,0.03-5.529,0.121
		C1.276,17.5,3.433,5.286,3.615,2.005c1.307,0.061,3.98,0.122,6.319,0.122c1.701,0,2.917-0.03,4.466-0.122
		c-0.273,0.638-0.365,1.094-0.365,1.671v0.486c-1.519-0.213-3.433-0.334-5.772-0.334c-0.183,0-0.425,0-1.033,0.031
		c-0.364,1.61-0.82,3.919-1.397,6.957h1.702c2.035,0,3.889-0.061,5.225-0.183c-0.212,0.638-0.334,1.185-0.334,1.641v0.365
		c-1.185-0.122-4.557-0.213-6.866-0.213c-0.425,2.188-1.185,6.988-1.306,8.324C4.8,20.81,5.104,20.81,5.803,20.81
		c2.248,0,3.707-0.061,5.833-0.273c-0.243,0.729-0.304,1.094-0.304,1.641V22.511z"/>
	<path id="XMLID_4_" fill="#00847C" d="M19.201,15.859c-0.729-1.52-2.005-4.071-3.797-7.656c0.82,0.091,1.215,0.122,1.792,0.122
		c0.547,0,1.003-0.031,1.914-0.122c0.547,1.336,1.428,3.312,2.279,5.104c0.911-1.033,2.005-2.522,3.767-5.104
		c0.456,0.091,0.699,0.122,1.185,0.122c0.486,0,0.76-0.031,1.367-0.122c-1.306,1.397-3.129,3.433-5.286,5.894l-0.456,0.517
		c1.154,2.431,2.339,4.861,3.554,7.352c0.091,0.183,0.183,0.365,0.243,0.547c-0.82-0.091-1.215-0.121-1.792-0.121
		c-0.547,0-0.972,0.03-1.823,0.121c-0.668-1.641-1.033-2.461-2.339-5.347c-1.975,2.4-2.491,3.068-4.131,5.347
		c-0.486-0.091-0.729-0.121-1.155-0.121c-0.364,0-0.699,0.03-1.458,0.121c1.154-1.123,2.673-2.764,5.65-6.137L19.201,15.859z"/>
	<path id="XMLID_6_" fill="#00847C" d="M32.912,10.481c1.276-1.731,2.795-2.552,4.739-2.552c3.19,0,5.286,2.37,5.286,6.045
		c0,2.279-0.699,4.466-1.975,6.198c-1.276,1.763-3.099,2.704-5.195,2.704c-2.035,0-3.22-0.639-4.466-2.431
		c-0.881,4.739-1.306,7.474-1.549,10.056c-0.699-0.151-1.063-0.182-1.701-0.182c-0.638,0-1.063,0.03-1.944,0.151
		c1.276-5.134,3.646-18.532,3.919-22.269c0.638,0.122,0.972,0.152,1.549,0.152s1.002-0.03,1.823-0.152
		c-0.061,0.334-0.152,0.729-0.243,1.185l-0.091,0.456L32.912,10.481z M33.185,12.03c-0.729,1.458-1.337,4.071-1.337,5.864
		c0,2.035,1.185,3.402,2.977,3.402c1.428,0,2.491-0.82,3.342-2.461c0.729-1.458,1.276-3.767,1.276-5.408
		c0-2.339-1.063-3.706-2.917-3.706C35.19,9.722,33.914,10.603,33.185,12.03z"/>
	<path id="XMLID_9_" fill="#00847C" d="M56.648,20.476c-0.273,0.426-0.486,0.973-0.638,1.52c-1.306,0.607-2.521,0.881-4.132,0.881
		c-4.436,0-6.987-2.34-6.987-6.38c0-5.104,3.129-8.567,7.747-8.567c1.701,0,3.22,0.517,4.253,1.428
		c1.063,0.942,1.519,2.096,1.519,3.889c0,0.881-0.061,1.489-0.273,2.431c-1.823-0.062-5.286-0.151-6.957-0.151l-2.218,0.029h-0.486
		c-0.091,0.669-0.122,1.003-0.122,1.398c0,2.764,1.731,4.525,4.466,4.525c1.428,0,2.552-0.395,3.494-1.184L56.648,20.476z
		 M55.25,12.365c0-2.036-0.941-3.312-2.46-3.312c-2.066,0-3.737,2.096-4.162,5.256c1.397,0.03,2.582,0.061,3.797,0.061
		c0.76,0,1.276,0,2.613-0.061C55.159,13.732,55.25,13.002,55.25,12.365z"/>
	<path id="XMLID_12_" fill="#00847C" d="M69.122,11.483c-0.577-0.273-0.881-0.364-1.306-0.364c-1.702,0-2.978,1.306-3.494,3.554
		c-0.456,2.097-0.941,5.256-1.185,7.838c-0.79-0.091-1.185-0.121-1.823-0.121c-0.577,0-0.972,0.03-1.792,0.121
		c1.276-5.347,2.309-11.21,2.521-14.309c0.699,0.091,1.063,0.122,1.671,0.122s0.972-0.031,1.58-0.122
		c-0.091,0.456-0.182,1.002-0.304,1.58c-0.122,0.608-0.212,1.063-0.334,1.823c1.397-2.521,2.795-3.615,4.618-3.615
		c0.243,0,0.395,0.031,0.699,0.122c-0.334,0.881-0.607,2.188-0.607,2.917c0,0.03,0,0.152,0.03,0.304L69.122,11.483z"/>
	<path id="XMLID_14_" fill="#00847C" d="M73.806,8.324c0.729,0,1.155-0.031,1.884-0.122c-1.337,5.499-2.218,10.451-2.521,14.309
		c-0.79-0.091-1.215-0.121-1.823-0.121c-0.668,0-1.094,0.03-1.884,0.121c1.002-3.615,2.491-12.03,2.521-14.309
		C72.713,8.293,73.077,8.324,73.806,8.324z M76.602,2.855c0,1.063-0.851,1.914-1.944,1.914c-1.063,0-1.944-0.881-1.944-1.944
		s0.881-1.944,1.914-1.944C75.72,0.881,76.602,1.762,76.602,2.855z"/>
	<path id="XMLID_17_" fill="#00847C" d="M88.784,20.476c-0.273,0.426-0.486,0.973-0.638,1.52c-1.306,0.607-2.521,0.881-4.132,0.881
		c-4.436,0-6.987-2.34-6.987-6.38c0-5.104,3.129-8.567,7.747-8.567c1.701,0,3.22,0.517,4.253,1.428
		c1.063,0.942,1.519,2.096,1.519,3.889c0,0.881-0.061,1.489-0.273,2.431c-1.823-0.062-5.286-0.151-6.957-0.151l-2.218,0.029h-0.486
		c-0.091,0.669-0.122,1.003-0.122,1.398c0,2.764,1.731,4.525,4.466,4.525c1.428,0,2.552-0.395,3.494-1.184L88.784,20.476z
		 M87.386,12.365c0-2.036-0.941-3.312-2.46-3.312c-2.066,0-3.737,2.096-4.162,5.256c1.397,0.03,2.582,0.061,3.797,0.061
		c0.76,0,1.276,0,2.613-0.061C87.295,13.732,87.386,13.002,87.386,12.365z"/>
	<path id="XMLID_20_" fill="#00847C" d="M97.172,9.934c-0.03,0.213-0.091,0.456-0.152,0.76c1.306-1.792,3.129-2.765,5.195-2.765
		c2.37,0,4.01,1.428,4.01,3.433c0,1.002,0,1.002-0.79,5.073c-0.547,2.856-0.729,3.828-1.003,6.076
		c-0.79-0.091-1.185-0.121-1.792-0.121c-0.608,0-1.003,0.03-1.823,0.121c1.003-3.706,2.127-9.144,2.127-10.359
		c0-1.397-0.881-2.309-2.279-2.309c-1.276,0-2.46,0.729-3.22,1.975c-0.577,0.911-1.033,2.582-1.61,5.894
		c-0.365,2.157-0.547,3.372-0.668,4.8c-0.82-0.091-1.215-0.121-1.671-0.121c-0.395,0-0.729,0.03-1.884,0.121
		c1.002-3.767,2.37-11.544,2.521-14.309c0.82,0.091,1.215,0.122,1.823,0.122c0.608,0,0.912-0.031,1.61-0.122
		C97.415,8.84,97.415,8.871,97.172,9.934z"/>
	<path id="XMLID_22_" fill="#00847C" d="M119.948,20.506c-0.334,0.486-0.516,0.911-0.729,1.489
		c-1.428,0.607-2.673,0.881-3.949,0.881c-1.732,0-3.403-0.517-4.679-1.459c-1.519-1.123-2.309-2.855-2.309-5.134
		c0-4.982,3.463-8.354,8.567-8.354c1.853,0,3.494,0.364,4.921,1.124c-0.425,0.912-0.79,1.914-1.124,3.099l-0.395-0.061
		c-0.243-2.036-1.246-3.008-3.099-3.008c-1.519,0-2.825,0.729-3.767,2.127c-1.002,1.488-1.58,3.433-1.58,5.286
		c0,2.978,1.792,4.952,4.466,4.952c1.185,0,2.187-0.334,3.372-1.125L119.948,20.506z"/>
	<path id="XMLID_24_" fill="#00847C" d="M133.926,20.476c-0.273,0.426-0.486,0.973-0.638,1.52c-1.306,0.607-2.521,0.881-4.132,0.881
		c-4.436,0-6.987-2.34-6.987-6.38c0-5.104,3.129-8.567,7.747-8.567c1.701,0,3.22,0.517,4.253,1.428
		c1.063,0.942,1.519,2.096,1.519,3.889c0,0.881-0.061,1.489-0.273,2.431c-1.823-0.062-5.286-0.151-6.957-0.151l-2.218,0.029h-0.486
		c-0.091,0.669-0.122,1.003-0.122,1.398c0,2.764,1.731,4.525,4.466,4.525c1.428,0,2.552-0.395,3.494-1.184L133.926,20.476z
		 M132.528,12.365c0-2.036-0.941-3.312-2.46-3.312c-2.066,0-3.737,2.096-4.162,5.256c1.397,0.03,2.582,0.061,3.797,0.061
		c0.76,0,1.276,0,2.613-0.061C132.437,13.732,132.528,13.002,132.528,12.365z"/>
	<path id="XMLID_27_" fill="#00847C" d="M147.111,11.271c0.182-0.79,0.243-1.124,0.243-1.641V9.327
		c1.762-1.002,3.22-1.397,4.982-1.397c2.917,0,4.739,1.397,4.739,3.615c0,0.729,0,0.759-0.425,2.765l-0.638,3.159
		c-0.212,0.941-0.395,2.248-0.395,2.613c0,0.881,0.547,1.396,1.428,1.396c0.304,0,0.486-0.029,0.851-0.182l-0.122,0.729
		c-0.79,0.426-1.61,0.639-2.461,0.639c-1.458,0-2.339-0.699-2.643-2.035c-1.185,1.58-2.461,2.248-4.162,2.248
		c-2.4,0-4.071-1.58-4.071-3.828c0-1.52,0.82-2.947,2.187-3.707c0.851-0.486,1.823-0.729,4.223-1.063
		c2.309-0.334,2.765-0.699,2.765-2.218c0-1.641-1.063-2.674-2.765-2.674c-1.397,0-2.491,0.608-3.342,1.914L147.111,11.271z
		 M150.271,15.585c-1.549,0.607-2.491,1.853-2.491,3.281c0,1.366,0.759,2.217,2.005,2.217c0.76,0,1.519-0.364,2.005-0.911
		c0.577-0.638,0.82-1.367,1.094-3.038c0.152-0.941,0.243-1.428,0.395-2.248C150.848,15.372,150.756,15.403,150.271,15.585z"/>
	<path id="XMLID_30_" fill="#00847C" d="M173.754,2.126c0.547,0,1.276-0.03,2.249-0.061c0.972-0.031,2.096-0.061,2.612-0.061
		c2.978,0,5.043,0.577,6.744,1.854c1.975,1.519,3.099,4.01,3.099,6.987c0,3.615-1.641,7.048-4.374,9.175
		c-2.31,1.762-4.922,2.49-9.023,2.49c-0.729,0-1.762-0.03-2.855-0.061c-1.124-0.03-1.914-0.061-2.37-0.061
		c-0.82,0-1.367,0.03-2.309,0.121c0.912-3.129,3.524-17.924,3.615-20.506C172.205,2.096,172.874,2.126,173.754,2.126z
		 M174.18,21.083c3.372,0,5.742-0.789,7.443-2.49c1.884-1.854,3.008-4.892,3.008-8.021c0-2.583-0.79-4.527-2.279-5.651
		c-1.306-1.002-2.916-1.397-5.56-1.397c-0.638,0-1.245,0.03-2.065,0.091c-0.912,3.797-2.37,12.244-3.008,17.377
		C172.722,21.053,173.42,21.083,174.18,21.083z"/>
	<path id="XMLID_33_" fill="#00847C" d="M193.964,8.324c0.729,0,1.154-0.031,1.883-0.122c-1.336,5.499-2.217,10.451-2.521,14.309
		c-0.789-0.091-1.215-0.121-1.822-0.121c-0.669,0-1.094,0.03-1.884,0.121c1.003-3.615,2.491-12.03,2.521-14.309
		C192.87,8.293,193.234,8.324,193.964,8.324z M196.759,2.855c0,1.063-0.851,1.914-1.944,1.914c-1.063,0-1.944-0.881-1.944-1.944
		s0.881-1.944,1.914-1.944C195.878,0.881,196.759,1.762,196.759,2.855z"/>
	<path id="XMLID_36_" fill="#00847C" d="M208.68,8.203c0.486,0.122,0.699,0.152,1.094,0.152c0.365,0,0.639-0.03,1.186-0.152
		c-0.426,0.759-0.912,1.519-1.854,3.129c-3.159,5.226-5.104,8.811-6.046,11.18c-0.668-0.091-0.972-0.121-1.307-0.121
		c-0.364,0-0.638,0.03-1.245,0.121c-0.881-5.164-1.428-7.807-2.917-14.309c0.82,0.122,1.216,0.152,1.672,0.152
		c0.485,0,0.911-0.03,1.731-0.152c0.698,4.071,1.488,8.264,2.126,10.876C205.551,14.643,207.191,11.453,208.68,8.203z"/>
	<path id="XMLID_38_" fill="#00847C" d="M214.678,8.324c0.729,0,1.154-0.031,1.884-0.122c-1.337,5.499-2.218,10.451-2.522,14.309
		c-0.789-0.091-1.215-0.121-1.822-0.121c-0.669,0-1.094,0.03-1.884,0.121c1.003-3.615,2.491-12.03,2.521-14.309
		C213.584,8.293,213.948,8.324,214.678,8.324z M217.473,2.855c0,1.063-0.851,1.914-1.944,1.914c-1.063,0-1.944-0.881-1.944-1.944
		s0.881-1.944,1.914-1.944C216.592,0.881,217.473,1.762,217.473,2.855z"/>
	<path id="XMLID_41_" fill="#00847C" d="M222.995,9.934c-0.03,0.213-0.091,0.456-0.151,0.76c1.306-1.792,3.129-2.765,5.194-2.765
		c2.37,0,4.011,1.428,4.011,3.433c0,1.002,0,1.002-0.79,5.073c-0.547,2.856-0.729,3.828-1.003,6.076
		c-0.79-0.091-1.185-0.121-1.792-0.121s-1.003,0.03-1.823,0.121c1.003-3.706,2.127-9.144,2.127-10.359
		c0-1.397-0.881-2.309-2.278-2.309c-1.276,0-2.461,0.729-3.221,1.975c-0.577,0.911-1.033,2.582-1.61,5.894
		c-0.364,2.157-0.547,3.372-0.668,4.8c-0.82-0.091-1.216-0.121-1.671-0.121c-0.396,0-0.729,0.03-1.884,0.121
		c1.003-3.767,2.37-11.544,2.521-14.309c0.82,0.091,1.216,0.122,1.823,0.122s0.911-0.031,1.61-0.122
		C223.238,8.84,223.238,8.871,222.995,9.934z"/>
	<path id="XMLID_43_" fill="#00847C" d="M245.98,20.476c-0.273,0.426-0.485,0.973-0.638,1.52c-1.307,0.607-2.521,0.881-4.132,0.881
		c-4.436,0-6.987-2.34-6.987-6.38c0-5.104,3.129-8.567,7.747-8.567c1.701,0,3.22,0.517,4.253,1.428
		c1.063,0.942,1.52,2.096,1.52,3.889c0,0.881-0.062,1.489-0.273,2.431c-1.823-0.062-5.286-0.151-6.957-0.151l-2.218,0.029h-0.486
		c-0.091,0.669-0.122,1.003-0.122,1.398c0,2.764,1.732,4.525,4.466,4.525c1.429,0,2.553-0.395,3.494-1.184L245.98,20.476z
		 M244.583,12.365c0-2.036-0.941-3.312-2.461-3.312c-2.065,0-3.736,2.096-4.162,5.256c1.397,0.03,2.583,0.061,3.798,0.061
		c0.76,0,1.276,0,2.612-0.061C244.492,13.732,244.583,13.002,244.583,12.365z"/>
	<path id="XMLID_46_" fill="#00847C" d="M275.419,6.258c-0.851-2.096-2.674-3.22-5.286-3.22c-2.582,0-4.952,1.246-6.319,3.281
		c-1.397,2.066-2.188,4.831-2.188,7.595c0,4.708,2.583,7.535,6.836,7.535c2.035,0,3.524-0.517,5.407-1.914l0.243,0.152
		c-0.334,0.637-0.547,1.215-0.82,2.156c-1.609,0.76-3.159,1.063-5.164,1.063c-6.319,0-10.329-3.798-10.329-9.722
		c0-6.805,5.043-11.575,12.213-11.575c2.703,0,5.043,0.578,6.835,1.702c-0.517,0.911-0.881,1.914-1.094,2.947H275.419z"/>
	<path id="XMLID_48_" fill="#00847C" d="M280.131,8.324c0.699,0,1.124-0.031,1.944-0.122c-0.759,2.886-2.065,9.539-2.065,10.48
		c0,1.398,0.881,2.279,2.248,2.279c2.005,0,3.312-1.428,4.071-4.375c0.698-2.795,1.185-5.62,1.428-8.385
		c0.638,0.091,0.972,0.122,1.58,0.122c0.638,0,1.093-0.031,1.975-0.122c-0.851,3.099-2.37,11.696-2.553,14.309
		c-0.668-0.091-0.972-0.121-1.519-0.121c-0.577,0-1.003,0.03-1.823,0.121c0.213-0.789,0.365-1.336,0.578-2.43
		c-1.276,1.792-3.16,2.795-5.256,2.795c-2.461,0-4.011-1.367-4.011-3.555c0-0.607,0.152-1.793,0.364-2.855
		c0.79-4.041,1.216-6.532,1.337-8.264C279.159,8.293,279.493,8.324,280.131,8.324z"/>
	<path id="XMLID_50_" fill="#00847C" d="M298.093,0.122c0.577,0,0.972-0.031,1.792-0.122c-1.64,7.564-3.22,16.497-3.979,22.511
		c-0.851-0.091-1.275-0.121-1.854-0.121c-0.547,0-0.972,0.03-1.853,0.121c0.972-3.523,3.372-17.195,3.979-22.511
		C297.09,0.091,297.546,0.122,298.093,0.122z"/>
	<path id="XMLID_52_" fill="#00847C" d="M307.841,22.177c-1.124,0.456-1.975,0.639-2.946,0.639c-2.37,0-3.798-1.186-3.798-3.16
		c0-0.699,0-0.699,0.881-5.408c0.243-1.246,0.517-2.825,0.851-4.739l-1.367,0.061c-0.517,0-0.911,0.03-1.519,0.061
		c0.121-0.486,0.182-0.881,0.151-1.428c0.851,0.122,1.428,0.152,2.947,0.182c0.091-0.607,0.334-2.248,0.486-3.281
		c1.609-0.547,2.916-1.125,3.523-1.519l0.304,0.152c-0.698,2.612-0.82,3.129-1.124,4.648c1.459-0.03,1.671-0.03,3.038-0.152
		c-0.121,0.517-0.151,0.76-0.182,1.367c-0.639-0.03-1.854-0.091-3.068-0.091l-0.76,4.345c-0.76,4.253-0.911,5.103-0.911,5.772
		c0,1.154,0.759,1.884,1.975,1.884c0.517,0,0.82-0.061,1.701-0.365L307.841,22.177z"/>
	<path id="XMLID_54_" fill="#00847C" d="M313.357,8.324c0.699,0,1.124-0.031,1.944-0.122c-0.759,2.886-2.065,9.539-2.065,10.48
		c0,1.398,0.881,2.279,2.248,2.279c2.005,0,3.312-1.428,4.071-4.375c0.698-2.795,1.185-5.62,1.428-8.385
		c0.638,0.091,0.972,0.122,1.58,0.122c0.638,0,1.093-0.031,1.975-0.122c-0.851,3.099-2.37,11.696-2.553,14.309
		c-0.668-0.091-0.972-0.121-1.519-0.121c-0.577,0-1.003,0.03-1.823,0.121c0.213-0.789,0.365-1.336,0.578-2.43
		c-1.276,1.792-3.16,2.795-5.256,2.795c-2.461,0-4.011-1.367-4.011-3.555c0-0.607,0.152-1.793,0.364-2.855
		c0.79-4.041,1.216-6.532,1.337-8.264C312.386,8.293,312.72,8.324,313.357,8.324z"/>
	<path id="XMLID_56_" fill="#00847C" d="M335.113,11.483c-0.577-0.273-0.881-0.364-1.307-0.364c-1.701,0-2.977,1.306-3.493,3.554
		c-0.456,2.097-0.942,5.256-1.186,7.838c-0.789-0.091-1.185-0.121-1.822-0.121c-0.577,0-0.973,0.03-1.793,0.121
		c1.276-5.347,2.31-11.21,2.521-14.309c0.699,0.091,1.063,0.122,1.672,0.122c0.607,0,0.972-0.031,1.579-0.122
		c-0.091,0.456-0.182,1.002-0.304,1.58c-0.121,0.608-0.213,1.063-0.334,1.823c1.397-2.521,2.795-3.615,4.618-3.615
		c0.242,0,0.395,0.031,0.698,0.122c-0.334,0.881-0.607,2.188-0.607,2.917c0,0.03,0,0.152,0.03,0.304L335.113,11.483z"/>
	<path id="XMLID_58_" fill="#00847C" d="M347.915,20.476c-0.273,0.426-0.485,0.973-0.638,1.52c-1.307,0.607-2.521,0.881-4.132,0.881
		c-4.436,0-6.987-2.34-6.987-6.38c0-5.104,3.129-8.567,7.747-8.567c1.701,0,3.22,0.517,4.253,1.428
		c1.063,0.942,1.52,2.096,1.52,3.889c0,0.881-0.062,1.489-0.273,2.431c-1.823-0.062-5.286-0.151-6.957-0.151l-2.218,0.029h-0.486
		c-0.091,0.669-0.122,1.003-0.122,1.398c0,2.764,1.732,4.525,4.466,4.525c1.429,0,2.553-0.395,3.494-1.184L347.915,20.476z
		 M346.518,12.365c0-2.036-0.941-3.312-2.461-3.312c-2.065,0-3.736,2.096-4.162,5.256c1.397,0.03,2.583,0.061,3.798,0.061
		c0.76,0,1.276,0,2.612-0.061C346.427,13.732,346.518,13.002,346.518,12.365z"/>
</g>
</svg>
